<mxfile host="Electron" agent="Mozilla/5.0 (X11; Linux x86_64) AppleWebKit/537.36 (KHTML, like Gecko) draw.io/24.7.17 Chrome/128.0.6613.36 Electron/32.0.1 Safari/537.36" version="24.7.17">
  <diagram name="Page-1" id="90a13364-a465-7bf4-72fc-28e22215d7a0">
    <mxGraphModel dx="1682" dy="1005" grid="1" gridSize="10" guides="1" tooltips="1" connect="1" arrows="1" fold="1" page="1" pageScale="1.5" pageWidth="1169" pageHeight="826" background="none" math="0" shadow="0">
      <root>
        <mxCell id="0" style=";html=1;" />
        <mxCell id="1" style=";html=1;" parent="0" />
        <mxCell id="Ab50SVI2X71MW31x_dfh-1" value="Ползователь" style="rounded=0;whiteSpace=wrap;html=1;" parent="1" vertex="1">
          <mxGeometry x="630" y="250" width="120" height="50" as="geometry" />
        </mxCell>
        <mxCell id="Ab50SVI2X71MW31x_dfh-2" value="Группы" style="rounded=0;whiteSpace=wrap;html=1;" parent="1" vertex="1">
          <mxGeometry x="390" y="575" width="120" height="60" as="geometry" />
        </mxCell>
        <mxCell id="Ab50SVI2X71MW31x_dfh-3" value="Текстовый п&lt;span style=&quot;background-color: initial;&quot;&gt;оиск&lt;/span&gt;" style="rounded=0;whiteSpace=wrap;html=1;" parent="1" vertex="1">
          <mxGeometry x="160" y="575" width="120" height="60" as="geometry" />
        </mxCell>
        <mxCell id="Ab50SVI2X71MW31x_dfh-5" value="Алфавитный указалль групп" style="rounded=0;whiteSpace=wrap;html=1;" parent="1" vertex="1">
          <mxGeometry x="390" y="795" width="120" height="60" as="geometry" />
        </mxCell>
        <mxCell id="Ab50SVI2X71MW31x_dfh-6" value="Постраничное&lt;div&gt;листание списка&lt;/div&gt;" style="rounded=0;whiteSpace=wrap;html=1;" parent="1" vertex="1">
          <mxGeometry x="520" y="795" width="120" height="60" as="geometry" />
        </mxCell>
        <mxCell id="Ab50SVI2X71MW31x_dfh-7" value="Закладки" style="rounded=0;whiteSpace=wrap;html=1;" parent="1" vertex="1">
          <mxGeometry x="1030" y="575" width="120" height="60" as="geometry" />
        </mxCell>
        <mxCell id="Ab50SVI2X71MW31x_dfh-8" value="Песни" style="rounded=0;whiteSpace=wrap;html=1;" parent="1" vertex="1">
          <mxGeometry x="740" y="575" width="120" height="60" as="geometry" />
        </mxCell>
        <mxCell id="Ab50SVI2X71MW31x_dfh-9" value="Алфавитный указалль песен" style="rounded=0;whiteSpace=wrap;html=1;" parent="1" vertex="1">
          <mxGeometry x="680" y="795" width="120" height="60" as="geometry" />
        </mxCell>
        <mxCell id="Ab50SVI2X71MW31x_dfh-10" value="Постраничное&lt;div&gt;листание списка&lt;/div&gt;" style="rounded=0;whiteSpace=wrap;html=1;" parent="1" vertex="1">
          <mxGeometry x="850" y="795" width="120" height="60" as="geometry" />
        </mxCell>
        <mxCell id="Ab50SVI2X71MW31x_dfh-12" value="" style="endArrow=classic;html=1;rounded=0;entryX=0.575;entryY=0.083;entryDx=0;entryDy=0;entryPerimeter=0;" parent="1" source="Ab50SVI2X71MW31x_dfh-1" target="Ab50SVI2X71MW31x_dfh-2" edge="1">
          <mxGeometry width="50" height="50" relative="1" as="geometry">
            <mxPoint x="660" y="810" as="sourcePoint" />
            <mxPoint x="710" y="760" as="targetPoint" />
          </mxGeometry>
        </mxCell>
        <mxCell id="Ab50SVI2X71MW31x_dfh-14" value="" style="endArrow=classic;html=1;rounded=0;" parent="1" source="Ab50SVI2X71MW31x_dfh-1" target="Ab50SVI2X71MW31x_dfh-7" edge="1">
          <mxGeometry width="50" height="50" relative="1" as="geometry">
            <mxPoint x="660" y="810" as="sourcePoint" />
            <mxPoint x="710" y="760" as="targetPoint" />
            <Array as="points">
              <mxPoint x="1080" y="480" />
            </Array>
          </mxGeometry>
        </mxCell>
        <mxCell id="Ab50SVI2X71MW31x_dfh-15" value="" style="endArrow=classic;html=1;rounded=0;" parent="1" source="Ab50SVI2X71MW31x_dfh-1" target="Ab50SVI2X71MW31x_dfh-8" edge="1">
          <mxGeometry width="50" height="50" relative="1" as="geometry">
            <mxPoint x="660" y="810" as="sourcePoint" />
            <mxPoint x="710" y="760" as="targetPoint" />
          </mxGeometry>
        </mxCell>
        <mxCell id="Ab50SVI2X71MW31x_dfh-16" value="" style="endArrow=classic;html=1;rounded=0;" parent="1" source="Ab50SVI2X71MW31x_dfh-2" target="Ab50SVI2X71MW31x_dfh-5" edge="1">
          <mxGeometry width="50" height="50" relative="1" as="geometry">
            <mxPoint x="670" y="685" as="sourcePoint" />
            <mxPoint x="720" y="635" as="targetPoint" />
            <Array as="points">
              <mxPoint x="450" y="695" />
            </Array>
          </mxGeometry>
        </mxCell>
        <mxCell id="Ab50SVI2X71MW31x_dfh-17" value="" style="endArrow=classic;html=1;rounded=0;entryX=0;entryY=0.25;entryDx=0;entryDy=0;" parent="1" target="Ab50SVI2X71MW31x_dfh-6" edge="1">
          <mxGeometry width="50" height="50" relative="1" as="geometry">
            <mxPoint x="450" y="635" as="sourcePoint" />
            <mxPoint x="720" y="635" as="targetPoint" />
            <Array as="points">
              <mxPoint x="450" y="695" />
            </Array>
          </mxGeometry>
        </mxCell>
        <mxCell id="Ab50SVI2X71MW31x_dfh-20" value="" style="endArrow=classic;html=1;rounded=0;entryX=0;entryY=0.5;entryDx=0;entryDy=0;exitX=0.5;exitY=1;exitDx=0;exitDy=0;" parent="1" source="Ab50SVI2X71MW31x_dfh-8" target="Ab50SVI2X71MW31x_dfh-10" edge="1">
          <mxGeometry width="50" height="50" relative="1" as="geometry">
            <mxPoint x="810" y="825" as="sourcePoint" />
            <mxPoint x="860" y="775" as="targetPoint" />
            <Array as="points">
              <mxPoint x="800" y="695" />
            </Array>
          </mxGeometry>
        </mxCell>
        <mxCell id="Ab50SVI2X71MW31x_dfh-22" value="" style="endArrow=classic;html=1;rounded=0;exitX=0.5;exitY=1;exitDx=0;exitDy=0;entryX=1;entryY=0.5;entryDx=0;entryDy=0;" parent="1" source="Ab50SVI2X71MW31x_dfh-8" target="Ab50SVI2X71MW31x_dfh-9" edge="1">
          <mxGeometry width="50" height="50" relative="1" as="geometry">
            <mxPoint x="670" y="685" as="sourcePoint" />
            <mxPoint x="720" y="635" as="targetPoint" />
            <Array as="points">
              <mxPoint x="800" y="695" />
            </Array>
          </mxGeometry>
        </mxCell>
        <mxCell id="Ab50SVI2X71MW31x_dfh-24" value="" style="endArrow=classic;html=1;rounded=0;exitX=0;exitY=0.5;exitDx=0;exitDy=0;entryX=0.5;entryY=0;entryDx=0;entryDy=0;" parent="1" source="Ab50SVI2X71MW31x_dfh-2" target="Ab50SVI2X71MW31x_dfh-25" edge="1">
          <mxGeometry width="50" height="50" relative="1" as="geometry">
            <mxPoint x="670" y="685" as="sourcePoint" />
            <mxPoint x="300" y="795" as="targetPoint" />
          </mxGeometry>
        </mxCell>
        <mxCell id="Ab50SVI2X71MW31x_dfh-46" style="edgeStyle=orthogonalEdgeStyle;rounded=0;orthogonalLoop=1;jettySize=auto;html=1;exitX=0.5;exitY=1;exitDx=0;exitDy=0;" parent="1" source="Ab50SVI2X71MW31x_dfh-25" edge="1">
          <mxGeometry relative="1" as="geometry">
            <mxPoint x="249.71428571428578" y="945" as="targetPoint" />
          </mxGeometry>
        </mxCell>
        <mxCell id="Ab50SVI2X71MW31x_dfh-25" value="Список песен" style="rounded=0;whiteSpace=wrap;html=1;" parent="1" vertex="1">
          <mxGeometry x="190" y="795" width="120" height="60" as="geometry" />
        </mxCell>
        <mxCell id="Ab50SVI2X71MW31x_dfh-26" value="Песня" style="rounded=0;whiteSpace=wrap;html=1;" parent="1" vertex="1">
          <mxGeometry x="1120" y="915" width="120" height="60" as="geometry" />
        </mxCell>
        <mxCell id="Ab50SVI2X71MW31x_dfh-27" value="Песня" style="rounded=0;whiteSpace=wrap;html=1;" parent="1" vertex="1">
          <mxGeometry x="1030" y="675" width="120" height="60" as="geometry" />
        </mxCell>
        <mxCell id="Ab50SVI2X71MW31x_dfh-28" value="" style="endArrow=classic;html=1;rounded=0;exitX=0.5;exitY=1;exitDx=0;exitDy=0;" parent="1" source="Ab50SVI2X71MW31x_dfh-7" target="Ab50SVI2X71MW31x_dfh-27" edge="1">
          <mxGeometry width="50" height="50" relative="1" as="geometry">
            <mxPoint x="820" y="685" as="sourcePoint" />
            <mxPoint x="870" y="635" as="targetPoint" />
          </mxGeometry>
        </mxCell>
        <mxCell id="Ab50SVI2X71MW31x_dfh-29" value="" style="endArrow=classic;html=1;rounded=0;exitX=1;exitY=0.5;exitDx=0;exitDy=0;entryX=0.5;entryY=0;entryDx=0;entryDy=0;" parent="1" source="Ab50SVI2X71MW31x_dfh-8" target="Ab50SVI2X71MW31x_dfh-26" edge="1">
          <mxGeometry width="50" height="50" relative="1" as="geometry">
            <mxPoint x="820" y="685" as="sourcePoint" />
            <mxPoint x="870" y="635" as="targetPoint" />
          </mxGeometry>
        </mxCell>
        <mxCell id="Ab50SVI2X71MW31x_dfh-30" value="raw text&lt;br&gt;one string&lt;br&gt;&lt;div&gt;&lt;br&gt;&lt;/div&gt;" style="text;html=1;align=center;verticalAlign=middle;whiteSpace=wrap;rounded=0;" parent="1" vertex="1">
          <mxGeometry x="340" y="440" width="60" height="40" as="geometry" />
        </mxCell>
        <mxCell id="Ab50SVI2X71MW31x_dfh-31" value="/songs_{n}" style="text;html=1;align=center;verticalAlign=middle;whiteSpace=wrap;rounded=0;" parent="1" vertex="1">
          <mxGeometry x="827" y="725" width="60" height="30" as="geometry" />
        </mxCell>
        <mxCell id="Ab50SVI2X71MW31x_dfh-33" value="/groups_{n}" style="text;html=1;align=center;verticalAlign=middle;whiteSpace=wrap;rounded=0;" parent="1" vertex="1">
          <mxGeometry x="500" y="725" width="60" height="30" as="geometry" />
        </mxCell>
        <mxCell id="Ab50SVI2X71MW31x_dfh-34" value="/groups" style="text;html=1;align=center;verticalAlign=middle;whiteSpace=wrap;rounded=0;" parent="1" vertex="1">
          <mxGeometry x="540" y="500" width="60" height="30" as="geometry" />
        </mxCell>
        <mxCell id="Ab50SVI2X71MW31x_dfh-35" value="/bookmarks" style="text;html=1;align=center;verticalAlign=middle;whiteSpace=wrap;rounded=0;" parent="1" vertex="1">
          <mxGeometry x="910" y="430" width="60" height="30" as="geometry" />
        </mxCell>
        <mxCell id="Ab50SVI2X71MW31x_dfh-36" value="/bookmark_{n}" style="text;html=1;align=center;verticalAlign=middle;whiteSpace=wrap;rounded=0;" parent="1" vertex="1">
          <mxGeometry x="1120" y="645" width="60" height="30" as="geometry" />
        </mxCell>
        <mxCell id="Ab50SVI2X71MW31x_dfh-37" value="/groups_{c}" style="text;html=1;align=center;verticalAlign=middle;whiteSpace=wrap;rounded=0;" parent="1" vertex="1">
          <mxGeometry x="370" y="725" width="60" height="30" as="geometry" />
        </mxCell>
        <mxCell id="Ab50SVI2X71MW31x_dfh-38" value="/gruop_{n}" style="text;html=1;align=center;verticalAlign=middle;whiteSpace=wrap;rounded=0;" parent="1" vertex="1">
          <mxGeometry x="240" y="690" width="60" height="30" as="geometry" />
        </mxCell>
        <mxCell id="Ab50SVI2X71MW31x_dfh-39" value="/songs_{c}" style="text;html=1;align=center;verticalAlign=middle;whiteSpace=wrap;rounded=0;" parent="1" vertex="1">
          <mxGeometry x="720" y="745" width="60" height="30" as="geometry" />
        </mxCell>
        <mxCell id="Ab50SVI2X71MW31x_dfh-40" value="/song_{n}" style="text;html=1;align=center;verticalAlign=middle;whiteSpace=wrap;rounded=0;" parent="1" vertex="1">
          <mxGeometry x="917" y="635" width="60" height="30" as="geometry" />
        </mxCell>
        <mxCell id="Ab50SVI2X71MW31x_dfh-41" value="" style="endArrow=classic;html=1;rounded=0;exitX=0;exitY=1;exitDx=0;exitDy=0;entryX=0.5;entryY=0;entryDx=0;entryDy=0;" parent="1" source="Ab50SVI2X71MW31x_dfh-1" target="Ab50SVI2X71MW31x_dfh-3" edge="1">
          <mxGeometry width="50" height="50" relative="1" as="geometry">
            <mxPoint x="410" y="640" as="sourcePoint" />
            <mxPoint x="460" y="590" as="targetPoint" />
            <Array as="points">
              <mxPoint x="220" y="480" />
            </Array>
          </mxGeometry>
        </mxCell>
        <mxCell id="Ab50SVI2X71MW31x_dfh-42" value="" style="endArrow=classic;html=1;rounded=0;exitX=1;exitY=0.5;exitDx=0;exitDy=0;entryX=0;entryY=0.5;entryDx=0;entryDy=0;fillColor=#0050ef;strokeColor=#001DBC;strokeWidth=3;" parent="1" source="Ab50SVI2X71MW31x_dfh-1" target="Ab50SVI2X71MW31x_dfh-43" edge="1">
          <mxGeometry width="50" height="50" relative="1" as="geometry">
            <mxPoint x="990" y="640" as="sourcePoint" />
            <mxPoint x="1260" y="305" as="targetPoint" />
          </mxGeometry>
        </mxCell>
        <mxCell id="Ab50SVI2X71MW31x_dfh-43" value="Добавление песни, или правка.&lt;div&gt;Первая строка:&lt;/div&gt;&lt;div&gt;group*name*flag&lt;/div&gt;" style="rounded=0;whiteSpace=wrap;html=1;" parent="1" vertex="1">
          <mxGeometry x="1300" y="400" width="120" height="120" as="geometry" />
        </mxCell>
        <mxCell id="Ab50SVI2X71MW31x_dfh-44" value="raw text&lt;br&gt;in create/update&lt;div&gt;format&lt;/div&gt;" style="text;html=1;align=center;verticalAlign=middle;whiteSpace=wrap;rounded=0;" parent="1" vertex="1">
          <mxGeometry x="1120" y="420" width="60" height="30" as="geometry" />
        </mxCell>
        <mxCell id="Ab50SVI2X71MW31x_dfh-48" value="Песня" style="rounded=0;whiteSpace=wrap;html=1;" parent="1" vertex="1">
          <mxGeometry x="190" y="945" width="120" height="60" as="geometry" />
        </mxCell>
        <mxCell id="Ab50SVI2X71MW31x_dfh-49" value="/song_{n}" style="text;html=1;align=center;verticalAlign=middle;whiteSpace=wrap;rounded=0;" parent="1" vertex="1">
          <mxGeometry x="260" y="885" width="60" height="30" as="geometry" />
        </mxCell>
        <mxCell id="Ab50SVI2X71MW31x_dfh-50" value="Удалить" style="rounded=0;whiteSpace=wrap;html=1;strokeColor=#0000FF;" parent="1" vertex="1">
          <mxGeometry x="310" y="945" width="120" height="60" as="geometry" />
        </mxCell>
        <mxCell id="Ab50SVI2X71MW31x_dfh-52" value="Удалить" style="rounded=0;whiteSpace=wrap;html=1;strokeColor=#0000CC;" parent="1" vertex="1">
          <mxGeometry x="1240" y="915" width="120" height="60" as="geometry" />
        </mxCell>
        <mxCell id="Ab50SVI2X71MW31x_dfh-53" value="/delete_{n}" style="text;html=1;align=center;verticalAlign=middle;whiteSpace=wrap;rounded=0;" parent="1" vertex="1">
          <mxGeometry x="340" y="915" width="60" height="30" as="geometry" />
        </mxCell>
        <mxCell id="Ab50SVI2X71MW31x_dfh-54" value="/delene_{n}" style="text;html=1;align=center;verticalAlign=middle;whiteSpace=wrap;rounded=0;" parent="1" vertex="1">
          <mxGeometry x="1270" y="885" width="60" height="30" as="geometry" />
        </mxCell>
        <mxCell id="Ab50SVI2X71MW31x_dfh-55" value="/songs" style="text;html=1;align=center;verticalAlign=middle;whiteSpace=wrap;rounded=0;" parent="1" vertex="1">
          <mxGeometry x="770" y="470" width="60" height="30" as="geometry" />
        </mxCell>
        <mxCell id="Ab50SVI2X71MW31x_dfh-57" value="Редактировать" style="rounded=0;whiteSpace=wrap;html=1;strokeColor=#0000CC;" parent="1" vertex="1">
          <mxGeometry x="1120" y="975" width="120" height="60" as="geometry" />
        </mxCell>
        <mxCell id="Ab50SVI2X71MW31x_dfh-58" value="/edit_{n}" style="text;html=1;align=center;verticalAlign=middle;whiteSpace=wrap;rounded=0;" parent="1" vertex="1">
          <mxGeometry x="1150" y="1035" width="60" height="30" as="geometry" />
        </mxCell>
        <mxCell id="Ab50SVI2X71MW31x_dfh-59" value="Редактировать" style="rounded=0;whiteSpace=wrap;html=1;strokeColor=#0000CC;" parent="1" vertex="1">
          <mxGeometry x="190" y="1005" width="120" height="60" as="geometry" />
        </mxCell>
        <mxCell id="Ab50SVI2X71MW31x_dfh-60" value="/edit_{n}" style="text;html=1;align=center;verticalAlign=middle;whiteSpace=wrap;rounded=0;" parent="1" vertex="1">
          <mxGeometry x="220" y="1065" width="60" height="30" as="geometry" />
        </mxCell>
        <mxCell id="Ab50SVI2X71MW31x_dfh-61" value="HTML" style="rounded=0;whiteSpace=wrap;html=1;" parent="1" vertex="1">
          <mxGeometry x="70" y="945" width="120" height="60" as="geometry" />
        </mxCell>
        <mxCell id="Ab50SVI2X71MW31x_dfh-62" value="/html_{n}" style="text;html=1;align=center;verticalAlign=middle;whiteSpace=wrap;rounded=0;" parent="1" vertex="1">
          <mxGeometry x="110" y="910" width="60" height="30" as="geometry" />
        </mxCell>
        <mxCell id="Ab50SVI2X71MW31x_dfh-63" value="HTML" style="rounded=0;whiteSpace=wrap;html=1;" parent="1" vertex="1">
          <mxGeometry x="1000" y="915" width="120" height="60" as="geometry" />
        </mxCell>
        <mxCell id="Ab50SVI2X71MW31x_dfh-64" value="/html_{n}" style="text;html=1;align=center;verticalAlign=middle;whiteSpace=wrap;rounded=0;" parent="1" vertex="1">
          <mxGeometry x="1040" y="880" width="60" height="30" as="geometry" />
        </mxCell>
      </root>
    </mxGraphModel>
  </diagram>
</mxfile>
